<svg width="576" height="512" viewBox="0 0 576 512" fill="none" xmlns="http://www.w3.org/2000/svg">
<g clip-path="url(#clip0)">
<path d="M298.06 224L448 277.55V496C448 500.244 446.314 504.313 443.314 507.314C440.313 510.315 436.243 512 432 512H368C363.757 512 359.687 510.315 356.686 507.314C353.686 504.313 352 500.244 352 496V384H192V496C192 500.244 190.314 504.313 187.314 507.314C184.313 510.315 180.243 512 176 512H112C107.757 512 103.687 510.315 100.686 507.314C97.6857 504.313 96 500.244 96 496V282.09C58.84 268.84 32 233.66 32 192C32 183.513 35.3714 175.374 41.3726 169.373C47.3737 163.372 55.5131 160 64 160C72.4869 160 80.6263 163.372 86.6274 169.373C92.6286 175.374 96 183.513 96 192C96.0159 200.482 99.3924 208.612 105.39 214.61C111.388 220.608 119.518 223.984 128 224H298.06ZM544 112V144C544 160.974 537.257 177.253 525.255 189.255C513.252 201.257 496.974 208 480 208H448V243.58L320 197.87V48.0003C320 33.7503 337.22 26.6103 347.31 36.6903L374.59 64.0003H428.22C439.13 64.0003 451.97 71.9203 456.84 81.6903L464 96.0003H528C532.243 96.0003 536.313 97.686 539.314 100.687C542.314 103.687 544 107.757 544 112ZM432 112C432 108.836 431.062 105.742 429.304 103.111C427.545 100.48 425.047 98.4292 422.123 97.2182C419.199 96.0072 415.982 95.6903 412.879 96.3077C409.775 96.9251 406.924 98.4489 404.686 100.687C402.449 102.924 400.925 105.775 400.307 108.879C399.69 111.983 400.007 115.2 401.218 118.123C402.429 121.047 404.48 123.546 407.111 125.304C409.742 127.062 412.835 128 416 128C420.243 128 424.313 126.315 427.314 123.314C430.314 120.313 432 116.244 432 112Z" fill="#0065FC"/>
</g>
<defs>
<clipPath id="clip0">
<rect width="576" height="512" fill="white"/>
</clipPath>
</defs>
</svg>
