<svg width="192" height="512" viewBox="0 0 192 512" fill="none" xmlns="http://www.w3.org/2000/svg">
<path d="M20 424.229H40V279.771H20C8.954 279.771 0 270.817 0 259.771V212C0 200.954 8.954 192 20 192H132C143.046 192 152 200.954 152 212V424.229H172C183.046 424.229 192 433.183 192 444.229V492C192 503.046 183.046 512 172 512H20C8.954 512 0 503.046 0 492V444.229C0 433.183 8.954 424.229 20 424.229ZM96 0C56.235 0 24 32.235 24 72C24 111.765 56.235 144 96 144C135.765 144 168 111.765 168 72C168 32.235 135.764 0 96 0Z" fill="#0065FC"/>
</svg>
